<mxfile host="app.diagrams.net" modified="2023-05-03T17:02:42.876Z" agent="Mozilla/5.0 (Windows NT 10.0; Win64; x64) AppleWebKit/537.36 (KHTML, like Gecko) Chrome/112.0.0.0 Safari/537.36 Edg/112.0.1722.64" etag="0RsoicECpOheykNyrxJB" version="21.1.8" type="device" pages="3">
  <diagram id="hYDpLWTTxXOnP5VwEAOP" name="Design">
    <mxGraphModel dx="789" dy="376" grid="1" gridSize="10" guides="1" tooltips="1" connect="1" arrows="1" fold="1" page="1" pageScale="1" pageWidth="827" pageHeight="1169" math="0" shadow="0">
      <root>
        <mxCell id="0" />
        <mxCell id="1" parent="0" />
        <mxCell id="rD9ZH-jzT0BM88NUUdoJ-6" value="Consulta" style="swimlane;whiteSpace=wrap;html=1;" parent="1" vertex="1">
          <mxGeometry x="90" y="40" width="740" height="440" as="geometry" />
        </mxCell>
        <mxCell id="llxftVUKtbDUr1pnSRmL-241" value="Assets" style="childLayout=tableLayout;recursiveResize=0;strokeColor=#98bf21;fillColor=#A7C942;shadow=1;movable=1;resizable=1;rotatable=1;deletable=1;editable=1;locked=0;connectable=1;" vertex="1" parent="rD9ZH-jzT0BM88NUUdoJ-6">
          <mxGeometry x="260" y="130" width="330" height="160" as="geometry" />
        </mxCell>
        <mxCell id="llxftVUKtbDUr1pnSRmL-242" style="shape=tableRow;horizontal=0;startSize=0;swimlaneHead=0;swimlaneBody=0;top=0;left=0;bottom=0;right=0;dropTarget=0;collapsible=0;recursiveResize=0;expand=0;fontStyle=0;strokeColor=inherit;fillColor=#ffffff;" vertex="1" parent="llxftVUKtbDUr1pnSRmL-241">
          <mxGeometry width="330" height="33" as="geometry" />
        </mxCell>
        <mxCell id="llxftVUKtbDUr1pnSRmL-243" value="Nome" style="connectable=0;recursiveResize=0;strokeColor=inherit;fillColor=#A7C942;align=center;fontStyle=1;fontColor=#FFFFFF;html=1;" vertex="1" parent="llxftVUKtbDUr1pnSRmL-242">
          <mxGeometry width="110" height="33" as="geometry">
            <mxRectangle width="110" height="33" as="alternateBounds" />
          </mxGeometry>
        </mxCell>
        <mxCell id="llxftVUKtbDUr1pnSRmL-244" value="Title 2" style="connectable=0;recursiveResize=0;strokeColor=inherit;fillColor=#A7C942;align=center;fontStyle=1;fontColor=#FFFFFF;html=1;" vertex="1" parent="llxftVUKtbDUr1pnSRmL-242">
          <mxGeometry x="110" width="100" height="33" as="geometry">
            <mxRectangle width="100" height="33" as="alternateBounds" />
          </mxGeometry>
        </mxCell>
        <mxCell id="llxftVUKtbDUr1pnSRmL-245" value="Nome" style="connectable=0;recursiveResize=0;strokeColor=inherit;fillColor=#A7C942;align=center;fontStyle=1;fontColor=#FFFFFF;html=1;" vertex="1" parent="llxftVUKtbDUr1pnSRmL-242">
          <mxGeometry x="210" width="120" height="33" as="geometry">
            <mxRectangle width="120" height="33" as="alternateBounds" />
          </mxGeometry>
        </mxCell>
        <mxCell id="llxftVUKtbDUr1pnSRmL-246" value="" style="shape=tableRow;horizontal=0;startSize=0;swimlaneHead=0;swimlaneBody=0;top=0;left=0;bottom=0;right=0;dropTarget=0;collapsible=0;recursiveResize=0;expand=0;fontStyle=0;strokeColor=inherit;fillColor=#ffffff;" vertex="1" parent="llxftVUKtbDUr1pnSRmL-241">
          <mxGeometry y="33" width="330" height="32" as="geometry" />
        </mxCell>
        <mxCell id="llxftVUKtbDUr1pnSRmL-247" value="Value 1" style="connectable=0;recursiveResize=0;strokeColor=inherit;fillColor=inherit;align=center;whiteSpace=wrap;html=1;" vertex="1" parent="llxftVUKtbDUr1pnSRmL-246">
          <mxGeometry width="110" height="32" as="geometry">
            <mxRectangle width="110" height="32" as="alternateBounds" />
          </mxGeometry>
        </mxCell>
        <mxCell id="llxftVUKtbDUr1pnSRmL-248" value="Value 2" style="connectable=0;recursiveResize=0;strokeColor=inherit;fillColor=inherit;align=center;whiteSpace=wrap;html=1;" vertex="1" parent="llxftVUKtbDUr1pnSRmL-246">
          <mxGeometry x="110" width="100" height="32" as="geometry">
            <mxRectangle width="100" height="32" as="alternateBounds" />
          </mxGeometry>
        </mxCell>
        <mxCell id="llxftVUKtbDUr1pnSRmL-249" value="Relat贸rio 1&lt;br&gt;" style="connectable=0;recursiveResize=0;strokeColor=inherit;fillColor=inherit;align=center;whiteSpace=wrap;html=1;" vertex="1" parent="llxftVUKtbDUr1pnSRmL-246">
          <mxGeometry x="210" width="120" height="32" as="geometry">
            <mxRectangle width="120" height="32" as="alternateBounds" />
          </mxGeometry>
        </mxCell>
        <mxCell id="llxftVUKtbDUr1pnSRmL-250" value="" style="shape=tableRow;horizontal=0;startSize=0;swimlaneHead=0;swimlaneBody=0;top=0;left=0;bottom=0;right=0;dropTarget=0;collapsible=0;recursiveResize=0;expand=0;fontStyle=1;strokeColor=inherit;fillColor=#EAF2D3;" vertex="1" parent="llxftVUKtbDUr1pnSRmL-241">
          <mxGeometry y="65" width="330" height="31" as="geometry" />
        </mxCell>
        <mxCell id="llxftVUKtbDUr1pnSRmL-251" value="Value 4" style="connectable=0;recursiveResize=0;strokeColor=inherit;fillColor=inherit;whiteSpace=wrap;html=1;" vertex="1" parent="llxftVUKtbDUr1pnSRmL-250">
          <mxGeometry width="110" height="31" as="geometry">
            <mxRectangle width="110" height="31" as="alternateBounds" />
          </mxGeometry>
        </mxCell>
        <mxCell id="llxftVUKtbDUr1pnSRmL-252" value="Value 5" style="connectable=0;recursiveResize=0;strokeColor=inherit;fillColor=inherit;whiteSpace=wrap;html=1;" vertex="1" parent="llxftVUKtbDUr1pnSRmL-250">
          <mxGeometry x="110" width="100" height="31" as="geometry">
            <mxRectangle width="100" height="31" as="alternateBounds" />
          </mxGeometry>
        </mxCell>
        <mxCell id="llxftVUKtbDUr1pnSRmL-253" value="Relat贸rio 2" style="connectable=0;recursiveResize=0;strokeColor=inherit;fillColor=inherit;whiteSpace=wrap;html=1;" vertex="1" parent="llxftVUKtbDUr1pnSRmL-250">
          <mxGeometry x="210" width="120" height="31" as="geometry">
            <mxRectangle width="120" height="31" as="alternateBounds" />
          </mxGeometry>
        </mxCell>
        <mxCell id="llxftVUKtbDUr1pnSRmL-254" value="" style="shape=tableRow;horizontal=0;startSize=0;swimlaneHead=0;swimlaneBody=0;top=0;left=0;bottom=0;right=0;dropTarget=0;collapsible=0;recursiveResize=0;expand=0;fontStyle=0;strokeColor=inherit;fillColor=#ffffff;" vertex="1" parent="llxftVUKtbDUr1pnSRmL-241">
          <mxGeometry y="96" width="330" height="33" as="geometry" />
        </mxCell>
        <mxCell id="llxftVUKtbDUr1pnSRmL-255" value="Value 7" style="connectable=0;recursiveResize=0;strokeColor=inherit;fillColor=inherit;fontStyle=0;align=center;whiteSpace=wrap;html=1;" vertex="1" parent="llxftVUKtbDUr1pnSRmL-254">
          <mxGeometry width="110" height="33" as="geometry">
            <mxRectangle width="110" height="33" as="alternateBounds" />
          </mxGeometry>
        </mxCell>
        <mxCell id="llxftVUKtbDUr1pnSRmL-256" value="Value 8" style="connectable=0;recursiveResize=0;strokeColor=inherit;fillColor=inherit;fontStyle=0;align=center;whiteSpace=wrap;html=1;" vertex="1" parent="llxftVUKtbDUr1pnSRmL-254">
          <mxGeometry x="110" width="100" height="33" as="geometry">
            <mxRectangle width="100" height="33" as="alternateBounds" />
          </mxGeometry>
        </mxCell>
        <mxCell id="llxftVUKtbDUr1pnSRmL-257" value="Relat贸rio 3" style="connectable=0;recursiveResize=0;strokeColor=inherit;fillColor=inherit;fontStyle=0;align=center;whiteSpace=wrap;html=1;" vertex="1" parent="llxftVUKtbDUr1pnSRmL-254">
          <mxGeometry x="210" width="120" height="33" as="geometry">
            <mxRectangle width="120" height="33" as="alternateBounds" />
          </mxGeometry>
        </mxCell>
        <mxCell id="llxftVUKtbDUr1pnSRmL-258" value="" style="shape=tableRow;horizontal=0;startSize=0;swimlaneHead=0;swimlaneBody=0;top=0;left=0;bottom=0;right=0;dropTarget=0;collapsible=0;recursiveResize=0;expand=0;fontStyle=1;strokeColor=inherit;fillColor=#EAF2D3;" vertex="1" parent="llxftVUKtbDUr1pnSRmL-241">
          <mxGeometry y="129" width="330" height="31" as="geometry" />
        </mxCell>
        <mxCell id="llxftVUKtbDUr1pnSRmL-259" value="Value 10" style="connectable=0;recursiveResize=0;strokeColor=inherit;fillColor=inherit;whiteSpace=wrap;html=1;" vertex="1" parent="llxftVUKtbDUr1pnSRmL-258">
          <mxGeometry width="110" height="31" as="geometry">
            <mxRectangle width="110" height="31" as="alternateBounds" />
          </mxGeometry>
        </mxCell>
        <mxCell id="llxftVUKtbDUr1pnSRmL-260" value="Value 11" style="connectable=0;recursiveResize=0;strokeColor=inherit;fillColor=inherit;whiteSpace=wrap;html=1;" vertex="1" parent="llxftVUKtbDUr1pnSRmL-258">
          <mxGeometry x="110" width="100" height="31" as="geometry">
            <mxRectangle width="100" height="31" as="alternateBounds" />
          </mxGeometry>
        </mxCell>
        <mxCell id="llxftVUKtbDUr1pnSRmL-261" value="Relat贸rio 4" style="connectable=0;recursiveResize=0;strokeColor=inherit;fillColor=inherit;whiteSpace=wrap;html=1;" vertex="1" parent="llxftVUKtbDUr1pnSRmL-258">
          <mxGeometry x="210" width="120" height="31" as="geometry">
            <mxRectangle width="120" height="31" as="alternateBounds" />
          </mxGeometry>
        </mxCell>
        <mxCell id="rD9ZH-jzT0BM88NUUdoJ-68" value="Projeto do GitHub" style="text;html=1;strokeColor=none;fillColor=none;align=center;verticalAlign=middle;whiteSpace=wrap;rounded=0;" parent="rD9ZH-jzT0BM88NUUdoJ-6" vertex="1">
          <mxGeometry x="259" y="390" width="150" height="30" as="geometry" />
        </mxCell>
        <mxCell id="09MX7oAzeaX3uCbdMfl3-3" value="CheckList" style="rounded=1;fillColor=#253858;strokeColor=none;html=1;fontColor=#ffffff;align=left;fontSize=12;spacingLeft=10;sketch=0;hachureGap=4;pointerEvents=0;fontFamily=Architects Daughter;fontSource=https%3A%2F%2Ffonts.googleapis.com%2Fcss%3Ffamily%3DArchitects%2BDaughter;" parent="rD9ZH-jzT0BM88NUUdoJ-6" vertex="1">
          <mxGeometry x="490" y="50" width="100" height="33" as="geometry" />
        </mxCell>
        <mxCell id="09MX7oAzeaX3uCbdMfl3-4" value="" style="shape=triangle;direction=south;fillColor=#ffffff;strokeColor=none;html=1;sketch=1;hachureGap=4;pointerEvents=0;fontFamily=Architects Daughter;fontSource=https%3A%2F%2Ffonts.googleapis.com%2Fcss%3Ffamily%3DArchitects%2BDaughter;fontSize=20;" parent="09MX7oAzeaX3uCbdMfl3-3" vertex="1">
          <mxGeometry x="1" y="0.5" width="12" height="6" relative="1" as="geometry">
            <mxPoint x="-20" y="-3" as="offset" />
          </mxGeometry>
        </mxCell>
        <mxCell id="09MX7oAzeaX3uCbdMfl3-91" value="" style="rounded=1;arcSize=9;fillColor=#ffffff;strokeColor=#4C9AFF;html=1;strokeWidth=2;spacingLeft=30;fontColor=#000000;align=left" parent="rD9ZH-jzT0BM88NUUdoJ-6" vertex="1">
          <mxGeometry x="140" y="50" width="340" height="33" as="geometry" />
        </mxCell>
        <mxCell id="09MX7oAzeaX3uCbdMfl3-92" value="" style="shape=mxgraph.ios7.icons.looking_glass;fillColor=none;strokeColor=#243759;html=1;strokeWidth=2" parent="09MX7oAzeaX3uCbdMfl3-91" vertex="1">
          <mxGeometry x="1" y="0.5" width="15" height="15" relative="1" as="geometry">
            <mxPoint x="-30" y="-7.5" as="offset" />
          </mxGeometry>
        </mxCell>
        <mxCell id="llxftVUKtbDUr1pnSRmL-74" value="Assets" style="childLayout=tableLayout;recursiveResize=0;strokeColor=#98bf21;fillColor=#A7C942;shadow=1;movable=1;resizable=1;rotatable=1;deletable=1;editable=1;locked=0;connectable=1;" vertex="1" parent="rD9ZH-jzT0BM88NUUdoJ-6">
          <mxGeometry x="120" y="130" width="350" height="160" as="geometry" />
        </mxCell>
        <mxCell id="llxftVUKtbDUr1pnSRmL-75" style="shape=tableRow;horizontal=0;startSize=0;swimlaneHead=0;swimlaneBody=0;top=0;left=0;bottom=0;right=0;dropTarget=0;collapsible=0;recursiveResize=0;expand=0;fontStyle=0;strokeColor=inherit;fillColor=#ffffff;" vertex="1" parent="llxftVUKtbDUr1pnSRmL-74">
          <mxGeometry width="350" height="33" as="geometry" />
        </mxCell>
        <mxCell id="llxftVUKtbDUr1pnSRmL-76" value="ID&lt;span style=&quot;white-space: pre;&quot;&gt;	&lt;/span&gt;" style="connectable=0;recursiveResize=0;strokeColor=inherit;fillColor=#A7C942;align=center;fontStyle=1;fontColor=#FFFFFF;html=1;" vertex="1" parent="llxftVUKtbDUr1pnSRmL-75">
          <mxGeometry width="62" height="33" as="geometry">
            <mxRectangle width="62" height="33" as="alternateBounds" />
          </mxGeometry>
        </mxCell>
        <mxCell id="llxftVUKtbDUr1pnSRmL-77" value="Nome&lt;span style=&quot;white-space: pre;&quot;&gt;	&lt;/span&gt;" style="connectable=0;recursiveResize=0;strokeColor=inherit;fillColor=#A7C942;align=center;fontStyle=1;fontColor=#FFFFFF;html=1;" vertex="1" parent="llxftVUKtbDUr1pnSRmL-75">
          <mxGeometry x="62" width="180" height="33" as="geometry">
            <mxRectangle width="180" height="33" as="alternateBounds" />
          </mxGeometry>
        </mxCell>
        <mxCell id="llxftVUKtbDUr1pnSRmL-78" value="ID Relat贸rio" style="connectable=0;recursiveResize=0;strokeColor=inherit;fillColor=#A7C942;align=center;fontStyle=1;fontColor=#FFFFFF;html=1;" vertex="1" parent="llxftVUKtbDUr1pnSRmL-75">
          <mxGeometry x="242" width="108" height="33" as="geometry">
            <mxRectangle width="108" height="33" as="alternateBounds" />
          </mxGeometry>
        </mxCell>
        <mxCell id="llxftVUKtbDUr1pnSRmL-79" value="" style="shape=tableRow;horizontal=0;startSize=0;swimlaneHead=0;swimlaneBody=0;top=0;left=0;bottom=0;right=0;dropTarget=0;collapsible=0;recursiveResize=0;expand=0;fontStyle=0;strokeColor=inherit;fillColor=#ffffff;" vertex="1" parent="llxftVUKtbDUr1pnSRmL-74">
          <mxGeometry y="33" width="350" height="32" as="geometry" />
        </mxCell>
        <mxCell id="llxftVUKtbDUr1pnSRmL-80" value="1" style="connectable=0;recursiveResize=0;strokeColor=inherit;fillColor=inherit;align=center;whiteSpace=wrap;html=1;" vertex="1" parent="llxftVUKtbDUr1pnSRmL-79">
          <mxGeometry width="62" height="32" as="geometry">
            <mxRectangle width="62" height="32" as="alternateBounds" />
          </mxGeometry>
        </mxCell>
        <mxCell id="llxftVUKtbDUr1pnSRmL-81" value="Check List 1" style="connectable=0;recursiveResize=0;strokeColor=inherit;fillColor=inherit;align=center;whiteSpace=wrap;html=1;" vertex="1" parent="llxftVUKtbDUr1pnSRmL-79">
          <mxGeometry x="62" width="180" height="32" as="geometry">
            <mxRectangle width="180" height="32" as="alternateBounds" />
          </mxGeometry>
        </mxCell>
        <mxCell id="llxftVUKtbDUr1pnSRmL-82" value="1" style="connectable=0;recursiveResize=0;strokeColor=inherit;fillColor=inherit;align=center;whiteSpace=wrap;html=1;" vertex="1" parent="llxftVUKtbDUr1pnSRmL-79">
          <mxGeometry x="242" width="108" height="32" as="geometry">
            <mxRectangle width="108" height="32" as="alternateBounds" />
          </mxGeometry>
        </mxCell>
        <mxCell id="llxftVUKtbDUr1pnSRmL-83" value="" style="shape=tableRow;horizontal=0;startSize=0;swimlaneHead=0;swimlaneBody=0;top=0;left=0;bottom=0;right=0;dropTarget=0;collapsible=0;recursiveResize=0;expand=0;fontStyle=1;strokeColor=inherit;fillColor=#EAF2D3;" vertex="1" parent="llxftVUKtbDUr1pnSRmL-74">
          <mxGeometry y="65" width="350" height="31" as="geometry" />
        </mxCell>
        <mxCell id="llxftVUKtbDUr1pnSRmL-84" value="2" style="connectable=0;recursiveResize=0;strokeColor=inherit;fillColor=inherit;whiteSpace=wrap;html=1;" vertex="1" parent="llxftVUKtbDUr1pnSRmL-83">
          <mxGeometry width="62" height="31" as="geometry">
            <mxRectangle width="62" height="31" as="alternateBounds" />
          </mxGeometry>
        </mxCell>
        <mxCell id="llxftVUKtbDUr1pnSRmL-85" value="Check List 2" style="connectable=0;recursiveResize=0;strokeColor=inherit;fillColor=inherit;whiteSpace=wrap;html=1;" vertex="1" parent="llxftVUKtbDUr1pnSRmL-83">
          <mxGeometry x="62" width="180" height="31" as="geometry">
            <mxRectangle width="180" height="31" as="alternateBounds" />
          </mxGeometry>
        </mxCell>
        <mxCell id="llxftVUKtbDUr1pnSRmL-86" value="2" style="connectable=0;recursiveResize=0;strokeColor=inherit;fillColor=inherit;whiteSpace=wrap;html=1;" vertex="1" parent="llxftVUKtbDUr1pnSRmL-83">
          <mxGeometry x="242" width="108" height="31" as="geometry">
            <mxRectangle width="108" height="31" as="alternateBounds" />
          </mxGeometry>
        </mxCell>
        <mxCell id="llxftVUKtbDUr1pnSRmL-87" value="" style="shape=tableRow;horizontal=0;startSize=0;swimlaneHead=0;swimlaneBody=0;top=0;left=0;bottom=0;right=0;dropTarget=0;collapsible=0;recursiveResize=0;expand=0;fontStyle=0;strokeColor=inherit;fillColor=#ffffff;" vertex="1" parent="llxftVUKtbDUr1pnSRmL-74">
          <mxGeometry y="96" width="350" height="33" as="geometry" />
        </mxCell>
        <mxCell id="llxftVUKtbDUr1pnSRmL-88" value="3&lt;br&gt;" style="connectable=0;recursiveResize=0;strokeColor=inherit;fillColor=inherit;fontStyle=0;align=center;whiteSpace=wrap;html=1;" vertex="1" parent="llxftVUKtbDUr1pnSRmL-87">
          <mxGeometry width="62" height="33" as="geometry">
            <mxRectangle width="62" height="33" as="alternateBounds" />
          </mxGeometry>
        </mxCell>
        <mxCell id="llxftVUKtbDUr1pnSRmL-89" value="Check List 3" style="connectable=0;recursiveResize=0;strokeColor=inherit;fillColor=inherit;fontStyle=0;align=center;whiteSpace=wrap;html=1;" vertex="1" parent="llxftVUKtbDUr1pnSRmL-87">
          <mxGeometry x="62" width="180" height="33" as="geometry">
            <mxRectangle width="180" height="33" as="alternateBounds" />
          </mxGeometry>
        </mxCell>
        <mxCell id="llxftVUKtbDUr1pnSRmL-90" value="3" style="connectable=0;recursiveResize=0;strokeColor=inherit;fillColor=inherit;fontStyle=0;align=center;whiteSpace=wrap;html=1;" vertex="1" parent="llxftVUKtbDUr1pnSRmL-87">
          <mxGeometry x="242" width="108" height="33" as="geometry">
            <mxRectangle width="108" height="33" as="alternateBounds" />
          </mxGeometry>
        </mxCell>
        <mxCell id="llxftVUKtbDUr1pnSRmL-91" value="" style="shape=tableRow;horizontal=0;startSize=0;swimlaneHead=0;swimlaneBody=0;top=0;left=0;bottom=0;right=0;dropTarget=0;collapsible=0;recursiveResize=0;expand=0;fontStyle=1;strokeColor=inherit;fillColor=#EAF2D3;" vertex="1" parent="llxftVUKtbDUr1pnSRmL-74">
          <mxGeometry y="129" width="350" height="31" as="geometry" />
        </mxCell>
        <mxCell id="llxftVUKtbDUr1pnSRmL-92" value="4&lt;br&gt;" style="connectable=0;recursiveResize=0;strokeColor=inherit;fillColor=inherit;whiteSpace=wrap;html=1;" vertex="1" parent="llxftVUKtbDUr1pnSRmL-91">
          <mxGeometry width="62" height="31" as="geometry">
            <mxRectangle width="62" height="31" as="alternateBounds" />
          </mxGeometry>
        </mxCell>
        <mxCell id="llxftVUKtbDUr1pnSRmL-93" value="Check List 4" style="connectable=0;recursiveResize=0;strokeColor=inherit;fillColor=inherit;whiteSpace=wrap;html=1;" vertex="1" parent="llxftVUKtbDUr1pnSRmL-91">
          <mxGeometry x="62" width="180" height="31" as="geometry">
            <mxRectangle width="180" height="31" as="alternateBounds" />
          </mxGeometry>
        </mxCell>
        <mxCell id="llxftVUKtbDUr1pnSRmL-94" value="4" style="connectable=0;recursiveResize=0;strokeColor=inherit;fillColor=inherit;whiteSpace=wrap;html=1;" vertex="1" parent="llxftVUKtbDUr1pnSRmL-91">
          <mxGeometry x="242" width="108" height="31" as="geometry">
            <mxRectangle width="108" height="31" as="alternateBounds" />
          </mxGeometry>
        </mxCell>
        <mxCell id="09MX7oAzeaX3uCbdMfl3-51" value="Consulta" style="swimlane;whiteSpace=wrap;html=1;" parent="1" vertex="1">
          <mxGeometry x="90" y="880" width="737" height="500" as="geometry" />
        </mxCell>
        <mxCell id="09MX7oAzeaX3uCbdMfl3-75" value="" style="rounded=1;arcSize=9;fillColor=#ffffff;strokeColor=#4C9AFF;html=1;strokeWidth=2;spacingLeft=30;fontColor=#000000;align=left" parent="09MX7oAzeaX3uCbdMfl3-51" vertex="1">
          <mxGeometry x="166" y="55" width="340" height="33" as="geometry" />
        </mxCell>
        <mxCell id="09MX7oAzeaX3uCbdMfl3-76" value="" style="shape=mxgraph.ios7.icons.looking_glass;fillColor=none;strokeColor=#243759;html=1;strokeWidth=2" parent="09MX7oAzeaX3uCbdMfl3-75" vertex="1">
          <mxGeometry x="1" y="0.5" width="15" height="15" relative="1" as="geometry">
            <mxPoint x="-30" y="-7.5" as="offset" />
          </mxGeometry>
        </mxCell>
        <mxCell id="09MX7oAzeaX3uCbdMfl3-93" value="Projeto do GitHub" style="text;html=1;strokeColor=none;fillColor=none;align=center;verticalAlign=middle;whiteSpace=wrap;rounded=0;" parent="09MX7oAzeaX3uCbdMfl3-51" vertex="1">
          <mxGeometry x="255" y="460" width="150" height="30" as="geometry" />
        </mxCell>
        <mxCell id="09MX7oAzeaX3uCbdMfl3-77" value="" style="rounded=1;fillColor=#ffffff;strokeColor=#DFE1E5;shadow=1;arcSize=1" parent="09MX7oAzeaX3uCbdMfl3-51" vertex="1">
          <mxGeometry x="130" y="88" width="419" height="250" as="geometry" />
        </mxCell>
        <mxCell id="09MX7oAzeaX3uCbdMfl3-78" value="SUGGESTIONS" style="fillColor=none;strokeColor=none;html=1;resizeWidth=1;align=left;spacingLeft=20;fontSize=11;fontStyle=1;fontColor=#596780" parent="09MX7oAzeaX3uCbdMfl3-77" vertex="1">
          <mxGeometry width="265.2352941176471" height="33" relative="1" as="geometry">
            <mxPoint y="10" as="offset" />
          </mxGeometry>
        </mxCell>
        <mxCell id="09MX7oAzeaX3uCbdMfl3-79" value="" style="rounded=0;fillColor=#000000;strokeColor=none;html=1;opacity=10;resizeWidth=1" parent="09MX7oAzeaX3uCbdMfl3-77" vertex="1">
          <mxGeometry width="334" height="33" relative="1" as="geometry">
            <mxPoint y="41" as="offset" />
          </mxGeometry>
        </mxCell>
        <mxCell id="09MX7oAzeaX3uCbdMfl3-80" value="Marianne Nguyen &lt;font color=&quot;#596780&quot;&gt;mnguyen@atlassian.com&lt;/font&gt;" style="shape=mxgraph.ios7.icons.user;fillColor=none;strokeColor=#253858;html=1;;align=left;fontSize=12;spacingLeft=5;labelPosition=right;verticalLabelPosition=middle;verticalAlign=middle;" parent="09MX7oAzeaX3uCbdMfl3-77" vertex="1">
          <mxGeometry width="24" height="24" relative="1" as="geometry">
            <mxPoint x="20" y="45" as="offset" />
          </mxGeometry>
        </mxCell>
        <mxCell id="09MX7oAzeaX3uCbdMfl3-81" value="ALL USERS" style="fillColor=none;strokeColor=none;html=1;resizeWidth=1;align=left;spacingLeft=20;fontSize=11;fontStyle=1;fontColor=#596780" parent="09MX7oAzeaX3uCbdMfl3-77" vertex="1">
          <mxGeometry width="265.2352941176471" height="33" relative="1" as="geometry">
            <mxPoint y="85" as="offset" />
          </mxGeometry>
        </mxCell>
        <mxCell id="09MX7oAzeaX3uCbdMfl3-82" value="Sam Samuels &lt;font color=&quot;#596780&quot;&gt;ssamuels@atlassian.com&lt;/font&gt;" style="shape=mxgraph.ios7.icons.user;fillColor=none;strokeColor=#253858;html=1;;align=left;fontSize=12;spacingLeft=5;labelPosition=right;verticalLabelPosition=middle;verticalAlign=middle;" parent="09MX7oAzeaX3uCbdMfl3-77" vertex="1">
          <mxGeometry width="24" height="24" relative="1" as="geometry">
            <mxPoint x="20" y="118" as="offset" />
          </mxGeometry>
        </mxCell>
        <mxCell id="09MX7oAzeaX3uCbdMfl3-83" value="Leana Stevens &lt;font color=&quot;#596780&quot;&gt;lstevens@atlassian.com&lt;/font&gt;" style="shape=mxgraph.ios7.icons.user;fillColor=none;strokeColor=#253858;html=1;;align=left;fontSize=12;spacingLeft=5;labelPosition=right;verticalLabelPosition=middle;verticalAlign=middle;" parent="09MX7oAzeaX3uCbdMfl3-77" vertex="1">
          <mxGeometry width="24" height="24" relative="1" as="geometry">
            <mxPoint x="20" y="151" as="offset" />
          </mxGeometry>
        </mxCell>
        <mxCell id="09MX7oAzeaX3uCbdMfl3-84" value="Casey Chambers &lt;font color=&quot;#596780&quot;&gt;cchambers@atlassian.com&lt;/font&gt;" style="shape=mxgraph.ios7.icons.user;fillColor=none;strokeColor=#253858;html=1;;align=left;fontSize=12;spacingLeft=5;labelPosition=right;verticalLabelPosition=middle;verticalAlign=middle;" parent="09MX7oAzeaX3uCbdMfl3-77" vertex="1">
          <mxGeometry width="24" height="24" relative="1" as="geometry">
            <mxPoint x="20" y="184" as="offset" />
          </mxGeometry>
        </mxCell>
        <mxCell id="09MX7oAzeaX3uCbdMfl3-85" value="Paige Turner &lt;font color=&quot;#596780&quot;&gt;pturner@atlassian.com&lt;/font&gt;" style="shape=mxgraph.ios7.icons.user;fillColor=none;strokeColor=#253858;html=1;;align=left;fontSize=12;spacingLeft=5;labelPosition=right;verticalLabelPosition=middle;verticalAlign=middle;" parent="09MX7oAzeaX3uCbdMfl3-77" vertex="1">
          <mxGeometry width="24" height="24" relative="1" as="geometry">
            <mxPoint x="20" y="217" as="offset" />
          </mxGeometry>
        </mxCell>
        <mxCell id="llxftVUKtbDUr1pnSRmL-26" value="Consulta" style="swimlane;whiteSpace=wrap;html=1;" vertex="1" parent="1">
          <mxGeometry x="90" y="500" width="740" height="360" as="geometry" />
        </mxCell>
        <mxCell id="llxftVUKtbDUr1pnSRmL-267" value="Assets" style="childLayout=tableLayout;recursiveResize=0;strokeColor=#98bf21;fillColor=#A7C942;shadow=1;movable=1;resizable=1;rotatable=1;deletable=1;editable=1;locked=0;connectable=1;" vertex="1" parent="llxftVUKtbDUr1pnSRmL-26">
          <mxGeometry x="255" y="113" width="330" height="160" as="geometry" />
        </mxCell>
        <mxCell id="llxftVUKtbDUr1pnSRmL-268" style="shape=tableRow;horizontal=0;startSize=0;swimlaneHead=0;swimlaneBody=0;top=0;left=0;bottom=0;right=0;dropTarget=0;collapsible=0;recursiveResize=0;expand=0;fontStyle=0;strokeColor=inherit;fillColor=#ffffff;" vertex="1" parent="llxftVUKtbDUr1pnSRmL-267">
          <mxGeometry width="330" height="33" as="geometry" />
        </mxCell>
        <mxCell id="llxftVUKtbDUr1pnSRmL-269" value="Nome" style="connectable=0;recursiveResize=0;strokeColor=inherit;fillColor=#A7C942;align=center;fontStyle=1;fontColor=#FFFFFF;html=1;" vertex="1" parent="llxftVUKtbDUr1pnSRmL-268">
          <mxGeometry width="110" height="33" as="geometry">
            <mxRectangle width="110" height="33" as="alternateBounds" />
          </mxGeometry>
        </mxCell>
        <mxCell id="llxftVUKtbDUr1pnSRmL-270" value="Title 2" style="connectable=0;recursiveResize=0;strokeColor=inherit;fillColor=#A7C942;align=center;fontStyle=1;fontColor=#FFFFFF;html=1;" vertex="1" parent="llxftVUKtbDUr1pnSRmL-268">
          <mxGeometry x="110" width="100" height="33" as="geometry">
            <mxRectangle width="100" height="33" as="alternateBounds" />
          </mxGeometry>
        </mxCell>
        <mxCell id="llxftVUKtbDUr1pnSRmL-271" value="Nome" style="connectable=0;recursiveResize=0;strokeColor=inherit;fillColor=#A7C942;align=center;fontStyle=1;fontColor=#FFFFFF;html=1;" vertex="1" parent="llxftVUKtbDUr1pnSRmL-268">
          <mxGeometry x="210" width="120" height="33" as="geometry">
            <mxRectangle width="120" height="33" as="alternateBounds" />
          </mxGeometry>
        </mxCell>
        <mxCell id="llxftVUKtbDUr1pnSRmL-272" value="" style="shape=tableRow;horizontal=0;startSize=0;swimlaneHead=0;swimlaneBody=0;top=0;left=0;bottom=0;right=0;dropTarget=0;collapsible=0;recursiveResize=0;expand=0;fontStyle=0;strokeColor=inherit;fillColor=#ffffff;" vertex="1" parent="llxftVUKtbDUr1pnSRmL-267">
          <mxGeometry y="33" width="330" height="32" as="geometry" />
        </mxCell>
        <mxCell id="llxftVUKtbDUr1pnSRmL-273" value="Value 1" style="connectable=0;recursiveResize=0;strokeColor=inherit;fillColor=inherit;align=center;whiteSpace=wrap;html=1;" vertex="1" parent="llxftVUKtbDUr1pnSRmL-272">
          <mxGeometry width="110" height="32" as="geometry">
            <mxRectangle width="110" height="32" as="alternateBounds" />
          </mxGeometry>
        </mxCell>
        <mxCell id="llxftVUKtbDUr1pnSRmL-274" value="Value 2" style="connectable=0;recursiveResize=0;strokeColor=inherit;fillColor=inherit;align=center;whiteSpace=wrap;html=1;" vertex="1" parent="llxftVUKtbDUr1pnSRmL-272">
          <mxGeometry x="110" width="100" height="32" as="geometry">
            <mxRectangle width="100" height="32" as="alternateBounds" />
          </mxGeometry>
        </mxCell>
        <mxCell id="llxftVUKtbDUr1pnSRmL-275" value="Relat贸rio 1&lt;br&gt;" style="connectable=0;recursiveResize=0;strokeColor=inherit;fillColor=inherit;align=center;whiteSpace=wrap;html=1;" vertex="1" parent="llxftVUKtbDUr1pnSRmL-272">
          <mxGeometry x="210" width="120" height="32" as="geometry">
            <mxRectangle width="120" height="32" as="alternateBounds" />
          </mxGeometry>
        </mxCell>
        <mxCell id="llxftVUKtbDUr1pnSRmL-276" value="" style="shape=tableRow;horizontal=0;startSize=0;swimlaneHead=0;swimlaneBody=0;top=0;left=0;bottom=0;right=0;dropTarget=0;collapsible=0;recursiveResize=0;expand=0;fontStyle=1;strokeColor=inherit;fillColor=#EAF2D3;" vertex="1" parent="llxftVUKtbDUr1pnSRmL-267">
          <mxGeometry y="65" width="330" height="31" as="geometry" />
        </mxCell>
        <mxCell id="llxftVUKtbDUr1pnSRmL-277" value="Value 4" style="connectable=0;recursiveResize=0;strokeColor=inherit;fillColor=inherit;whiteSpace=wrap;html=1;" vertex="1" parent="llxftVUKtbDUr1pnSRmL-276">
          <mxGeometry width="110" height="31" as="geometry">
            <mxRectangle width="110" height="31" as="alternateBounds" />
          </mxGeometry>
        </mxCell>
        <mxCell id="llxftVUKtbDUr1pnSRmL-278" value="Value 5" style="connectable=0;recursiveResize=0;strokeColor=inherit;fillColor=inherit;whiteSpace=wrap;html=1;" vertex="1" parent="llxftVUKtbDUr1pnSRmL-276">
          <mxGeometry x="110" width="100" height="31" as="geometry">
            <mxRectangle width="100" height="31" as="alternateBounds" />
          </mxGeometry>
        </mxCell>
        <mxCell id="llxftVUKtbDUr1pnSRmL-279" value="Relat贸rio 2" style="connectable=0;recursiveResize=0;strokeColor=inherit;fillColor=inherit;whiteSpace=wrap;html=1;" vertex="1" parent="llxftVUKtbDUr1pnSRmL-276">
          <mxGeometry x="210" width="120" height="31" as="geometry">
            <mxRectangle width="120" height="31" as="alternateBounds" />
          </mxGeometry>
        </mxCell>
        <mxCell id="llxftVUKtbDUr1pnSRmL-280" value="" style="shape=tableRow;horizontal=0;startSize=0;swimlaneHead=0;swimlaneBody=0;top=0;left=0;bottom=0;right=0;dropTarget=0;collapsible=0;recursiveResize=0;expand=0;fontStyle=0;strokeColor=inherit;fillColor=#ffffff;" vertex="1" parent="llxftVUKtbDUr1pnSRmL-267">
          <mxGeometry y="96" width="330" height="33" as="geometry" />
        </mxCell>
        <mxCell id="llxftVUKtbDUr1pnSRmL-281" value="Value 7" style="connectable=0;recursiveResize=0;strokeColor=inherit;fillColor=inherit;fontStyle=0;align=center;whiteSpace=wrap;html=1;" vertex="1" parent="llxftVUKtbDUr1pnSRmL-280">
          <mxGeometry width="110" height="33" as="geometry">
            <mxRectangle width="110" height="33" as="alternateBounds" />
          </mxGeometry>
        </mxCell>
        <mxCell id="llxftVUKtbDUr1pnSRmL-282" value="Value 8" style="connectable=0;recursiveResize=0;strokeColor=inherit;fillColor=inherit;fontStyle=0;align=center;whiteSpace=wrap;html=1;" vertex="1" parent="llxftVUKtbDUr1pnSRmL-280">
          <mxGeometry x="110" width="100" height="33" as="geometry">
            <mxRectangle width="100" height="33" as="alternateBounds" />
          </mxGeometry>
        </mxCell>
        <mxCell id="llxftVUKtbDUr1pnSRmL-283" value="Relat贸rio 3" style="connectable=0;recursiveResize=0;strokeColor=inherit;fillColor=inherit;fontStyle=0;align=center;whiteSpace=wrap;html=1;" vertex="1" parent="llxftVUKtbDUr1pnSRmL-280">
          <mxGeometry x="210" width="120" height="33" as="geometry">
            <mxRectangle width="120" height="33" as="alternateBounds" />
          </mxGeometry>
        </mxCell>
        <mxCell id="llxftVUKtbDUr1pnSRmL-284" value="" style="shape=tableRow;horizontal=0;startSize=0;swimlaneHead=0;swimlaneBody=0;top=0;left=0;bottom=0;right=0;dropTarget=0;collapsible=0;recursiveResize=0;expand=0;fontStyle=1;strokeColor=inherit;fillColor=#EAF2D3;" vertex="1" parent="llxftVUKtbDUr1pnSRmL-267">
          <mxGeometry y="129" width="330" height="31" as="geometry" />
        </mxCell>
        <mxCell id="llxftVUKtbDUr1pnSRmL-285" value="Value 10" style="connectable=0;recursiveResize=0;strokeColor=inherit;fillColor=inherit;whiteSpace=wrap;html=1;" vertex="1" parent="llxftVUKtbDUr1pnSRmL-284">
          <mxGeometry width="110" height="31" as="geometry">
            <mxRectangle width="110" height="31" as="alternateBounds" />
          </mxGeometry>
        </mxCell>
        <mxCell id="llxftVUKtbDUr1pnSRmL-286" value="Value 11" style="connectable=0;recursiveResize=0;strokeColor=inherit;fillColor=inherit;whiteSpace=wrap;html=1;" vertex="1" parent="llxftVUKtbDUr1pnSRmL-284">
          <mxGeometry x="110" width="100" height="31" as="geometry">
            <mxRectangle width="100" height="31" as="alternateBounds" />
          </mxGeometry>
        </mxCell>
        <mxCell id="llxftVUKtbDUr1pnSRmL-287" value="Relat贸rio 4" style="connectable=0;recursiveResize=0;strokeColor=inherit;fillColor=inherit;whiteSpace=wrap;html=1;" vertex="1" parent="llxftVUKtbDUr1pnSRmL-284">
          <mxGeometry x="210" width="120" height="31" as="geometry">
            <mxRectangle width="120" height="31" as="alternateBounds" />
          </mxGeometry>
        </mxCell>
        <mxCell id="llxftVUKtbDUr1pnSRmL-288" value="Assets" style="childLayout=tableLayout;recursiveResize=0;strokeColor=#98bf21;fillColor=#A7C942;shadow=1;movable=1;resizable=1;rotatable=1;deletable=1;editable=1;locked=0;connectable=1;" vertex="1" parent="llxftVUKtbDUr1pnSRmL-26">
          <mxGeometry x="115" y="113" width="350" height="160" as="geometry" />
        </mxCell>
        <mxCell id="llxftVUKtbDUr1pnSRmL-289" style="shape=tableRow;horizontal=0;startSize=0;swimlaneHead=0;swimlaneBody=0;top=0;left=0;bottom=0;right=0;dropTarget=0;collapsible=0;recursiveResize=0;expand=0;fontStyle=0;strokeColor=inherit;fillColor=#ffffff;" vertex="1" parent="llxftVUKtbDUr1pnSRmL-288">
          <mxGeometry width="350" height="33" as="geometry" />
        </mxCell>
        <mxCell id="llxftVUKtbDUr1pnSRmL-290" value="ID&lt;span style=&quot;white-space: pre;&quot;&gt;	&lt;/span&gt;" style="connectable=0;recursiveResize=0;strokeColor=inherit;fillColor=#A7C942;align=center;fontStyle=1;fontColor=#FFFFFF;html=1;" vertex="1" parent="llxftVUKtbDUr1pnSRmL-289">
          <mxGeometry width="62" height="33" as="geometry">
            <mxRectangle width="62" height="33" as="alternateBounds" />
          </mxGeometry>
        </mxCell>
        <mxCell id="llxftVUKtbDUr1pnSRmL-291" value="Nome&lt;span style=&quot;white-space: pre;&quot;&gt;	&lt;/span&gt;" style="connectable=0;recursiveResize=0;strokeColor=inherit;fillColor=#A7C942;align=center;fontStyle=1;fontColor=#FFFFFF;html=1;" vertex="1" parent="llxftVUKtbDUr1pnSRmL-289">
          <mxGeometry x="62" width="180" height="33" as="geometry">
            <mxRectangle width="180" height="33" as="alternateBounds" />
          </mxGeometry>
        </mxCell>
        <mxCell id="llxftVUKtbDUr1pnSRmL-292" value="ID Relat贸rio" style="connectable=0;recursiveResize=0;strokeColor=inherit;fillColor=#A7C942;align=center;fontStyle=1;fontColor=#FFFFFF;html=1;" vertex="1" parent="llxftVUKtbDUr1pnSRmL-289">
          <mxGeometry x="242" width="108" height="33" as="geometry">
            <mxRectangle width="108" height="33" as="alternateBounds" />
          </mxGeometry>
        </mxCell>
        <mxCell id="llxftVUKtbDUr1pnSRmL-293" value="" style="shape=tableRow;horizontal=0;startSize=0;swimlaneHead=0;swimlaneBody=0;top=0;left=0;bottom=0;right=0;dropTarget=0;collapsible=0;recursiveResize=0;expand=0;fontStyle=0;strokeColor=inherit;fillColor=#ffffff;" vertex="1" parent="llxftVUKtbDUr1pnSRmL-288">
          <mxGeometry y="33" width="350" height="32" as="geometry" />
        </mxCell>
        <mxCell id="llxftVUKtbDUr1pnSRmL-294" value="1" style="connectable=0;recursiveResize=0;strokeColor=inherit;fillColor=inherit;align=center;whiteSpace=wrap;html=1;" vertex="1" parent="llxftVUKtbDUr1pnSRmL-293">
          <mxGeometry width="62" height="32" as="geometry">
            <mxRectangle width="62" height="32" as="alternateBounds" />
          </mxGeometry>
        </mxCell>
        <mxCell id="llxftVUKtbDUr1pnSRmL-295" value="Check List 1" style="connectable=0;recursiveResize=0;strokeColor=inherit;fillColor=inherit;align=center;whiteSpace=wrap;html=1;" vertex="1" parent="llxftVUKtbDUr1pnSRmL-293">
          <mxGeometry x="62" width="180" height="32" as="geometry">
            <mxRectangle width="180" height="32" as="alternateBounds" />
          </mxGeometry>
        </mxCell>
        <mxCell id="llxftVUKtbDUr1pnSRmL-296" value="1" style="connectable=0;recursiveResize=0;strokeColor=inherit;fillColor=inherit;align=center;whiteSpace=wrap;html=1;" vertex="1" parent="llxftVUKtbDUr1pnSRmL-293">
          <mxGeometry x="242" width="108" height="32" as="geometry">
            <mxRectangle width="108" height="32" as="alternateBounds" />
          </mxGeometry>
        </mxCell>
        <mxCell id="llxftVUKtbDUr1pnSRmL-297" value="" style="shape=tableRow;horizontal=0;startSize=0;swimlaneHead=0;swimlaneBody=0;top=0;left=0;bottom=0;right=0;dropTarget=0;collapsible=0;recursiveResize=0;expand=0;fontStyle=1;strokeColor=inherit;fillColor=#EAF2D3;" vertex="1" parent="llxftVUKtbDUr1pnSRmL-288">
          <mxGeometry y="65" width="350" height="31" as="geometry" />
        </mxCell>
        <mxCell id="llxftVUKtbDUr1pnSRmL-298" value="2" style="connectable=0;recursiveResize=0;strokeColor=inherit;fillColor=inherit;whiteSpace=wrap;html=1;" vertex="1" parent="llxftVUKtbDUr1pnSRmL-297">
          <mxGeometry width="62" height="31" as="geometry">
            <mxRectangle width="62" height="31" as="alternateBounds" />
          </mxGeometry>
        </mxCell>
        <mxCell id="llxftVUKtbDUr1pnSRmL-299" value="Check List 2" style="connectable=0;recursiveResize=0;strokeColor=inherit;fillColor=inherit;whiteSpace=wrap;html=1;" vertex="1" parent="llxftVUKtbDUr1pnSRmL-297">
          <mxGeometry x="62" width="180" height="31" as="geometry">
            <mxRectangle width="180" height="31" as="alternateBounds" />
          </mxGeometry>
        </mxCell>
        <mxCell id="llxftVUKtbDUr1pnSRmL-300" value="2" style="connectable=0;recursiveResize=0;strokeColor=inherit;fillColor=inherit;whiteSpace=wrap;html=1;" vertex="1" parent="llxftVUKtbDUr1pnSRmL-297">
          <mxGeometry x="242" width="108" height="31" as="geometry">
            <mxRectangle width="108" height="31" as="alternateBounds" />
          </mxGeometry>
        </mxCell>
        <mxCell id="llxftVUKtbDUr1pnSRmL-301" value="" style="shape=tableRow;horizontal=0;startSize=0;swimlaneHead=0;swimlaneBody=0;top=0;left=0;bottom=0;right=0;dropTarget=0;collapsible=0;recursiveResize=0;expand=0;fontStyle=0;strokeColor=inherit;fillColor=#ffffff;" vertex="1" parent="llxftVUKtbDUr1pnSRmL-288">
          <mxGeometry y="96" width="350" height="33" as="geometry" />
        </mxCell>
        <mxCell id="llxftVUKtbDUr1pnSRmL-302" value="3&lt;br&gt;" style="connectable=0;recursiveResize=0;strokeColor=inherit;fillColor=inherit;fontStyle=0;align=center;whiteSpace=wrap;html=1;" vertex="1" parent="llxftVUKtbDUr1pnSRmL-301">
          <mxGeometry width="62" height="33" as="geometry">
            <mxRectangle width="62" height="33" as="alternateBounds" />
          </mxGeometry>
        </mxCell>
        <mxCell id="llxftVUKtbDUr1pnSRmL-303" value="Check List 3" style="connectable=0;recursiveResize=0;strokeColor=inherit;fillColor=inherit;fontStyle=0;align=center;whiteSpace=wrap;html=1;" vertex="1" parent="llxftVUKtbDUr1pnSRmL-301">
          <mxGeometry x="62" width="180" height="33" as="geometry">
            <mxRectangle width="180" height="33" as="alternateBounds" />
          </mxGeometry>
        </mxCell>
        <mxCell id="llxftVUKtbDUr1pnSRmL-304" value="3" style="connectable=0;recursiveResize=0;strokeColor=inherit;fillColor=inherit;fontStyle=0;align=center;whiteSpace=wrap;html=1;" vertex="1" parent="llxftVUKtbDUr1pnSRmL-301">
          <mxGeometry x="242" width="108" height="33" as="geometry">
            <mxRectangle width="108" height="33" as="alternateBounds" />
          </mxGeometry>
        </mxCell>
        <mxCell id="llxftVUKtbDUr1pnSRmL-305" value="" style="shape=tableRow;horizontal=0;startSize=0;swimlaneHead=0;swimlaneBody=0;top=0;left=0;bottom=0;right=0;dropTarget=0;collapsible=0;recursiveResize=0;expand=0;fontStyle=1;strokeColor=inherit;fillColor=#EAF2D3;" vertex="1" parent="llxftVUKtbDUr1pnSRmL-288">
          <mxGeometry y="129" width="350" height="31" as="geometry" />
        </mxCell>
        <mxCell id="llxftVUKtbDUr1pnSRmL-306" value="4&lt;br&gt;" style="connectable=0;recursiveResize=0;strokeColor=inherit;fillColor=inherit;whiteSpace=wrap;html=1;" vertex="1" parent="llxftVUKtbDUr1pnSRmL-305">
          <mxGeometry width="62" height="31" as="geometry">
            <mxRectangle width="62" height="31" as="alternateBounds" />
          </mxGeometry>
        </mxCell>
        <mxCell id="llxftVUKtbDUr1pnSRmL-307" value="Check List 4" style="connectable=0;recursiveResize=0;strokeColor=inherit;fillColor=inherit;whiteSpace=wrap;html=1;" vertex="1" parent="llxftVUKtbDUr1pnSRmL-305">
          <mxGeometry x="62" width="180" height="31" as="geometry">
            <mxRectangle width="180" height="31" as="alternateBounds" />
          </mxGeometry>
        </mxCell>
        <mxCell id="llxftVUKtbDUr1pnSRmL-308" value="4" style="connectable=0;recursiveResize=0;strokeColor=inherit;fillColor=inherit;whiteSpace=wrap;html=1;" vertex="1" parent="llxftVUKtbDUr1pnSRmL-305">
          <mxGeometry x="242" width="108" height="31" as="geometry">
            <mxRectangle width="108" height="31" as="alternateBounds" />
          </mxGeometry>
        </mxCell>
        <mxCell id="llxftVUKtbDUr1pnSRmL-27" value="Projeto do GitHub" style="text;html=1;strokeColor=none;fillColor=none;align=center;verticalAlign=middle;whiteSpace=wrap;rounded=0;" vertex="1" parent="llxftVUKtbDUr1pnSRmL-26">
          <mxGeometry x="250" y="320" width="150" height="30" as="geometry" />
        </mxCell>
        <mxCell id="llxftVUKtbDUr1pnSRmL-28" value="" style="rounded=1;fillColor=#ffffff;strokeColor=#DFE1E5;shadow=1;html=1;arcSize=4;sketch=1;hachureGap=4;pointerEvents=0;fontFamily=Architects Daughter;fontSource=https%3A%2F%2Ffonts.googleapis.com%2Fcss%3Ffamily%3DArchitects%2BDaughter;fontSize=20;" vertex="1" parent="llxftVUKtbDUr1pnSRmL-26">
          <mxGeometry x="490" y="83" width="110" height="190" as="geometry" />
        </mxCell>
        <mxCell id="llxftVUKtbDUr1pnSRmL-29" value="Documentos" style="rounded=0;fillColor=#F4F5F7;strokeColor=none;shadow=0;html=1;align=left;fontSize=12;spacingLeft=10;fontColor=#253858;resizeWidth=1;sketch=1;hachureGap=4;pointerEvents=0;fontFamily=Architects Daughter;fontSource=https%3A%2F%2Ffonts.googleapis.com%2Fcss%3Ffamily%3DArchitects%2BDaughter;" vertex="1" parent="llxftVUKtbDUr1pnSRmL-28">
          <mxGeometry width="110" height="33" relative="1" as="geometry">
            <mxPoint y="40" as="offset" />
          </mxGeometry>
        </mxCell>
        <mxCell id="llxftVUKtbDUr1pnSRmL-30" value="Seg do Trabalho" style="rounded=0;fillColor=none;strokeColor=none;shadow=0;html=1;align=left;fontSize=12;spacingLeft=10;fontColor=#253858;resizeWidth=1;sketch=1;hachureGap=4;pointerEvents=0;fontFamily=Architects Daughter;fontSource=https%3A%2F%2Ffonts.googleapis.com%2Fcss%3Ffamily%3DArchitects%2BDaughter;" vertex="1" parent="llxftVUKtbDUr1pnSRmL-28">
          <mxGeometry width="110" height="33" relative="1" as="geometry">
            <mxPoint y="90" as="offset" />
          </mxGeometry>
        </mxCell>
        <mxCell id="llxftVUKtbDUr1pnSRmL-31" value="Seg Ambiante&amp;nbsp;" style="rounded=0;fillColor=none;strokeColor=none;shadow=0;html=1;align=left;fontSize=12;spacingLeft=10;fontColor=#253858;resizeWidth=1;sketch=1;hachureGap=4;pointerEvents=0;fontFamily=Architects Daughter;fontSource=https%3A%2F%2Ffonts.googleapis.com%2Fcss%3Ffamily%3DArchitects%2BDaughter;" vertex="1" parent="llxftVUKtbDUr1pnSRmL-28">
          <mxGeometry width="110" height="33" relative="1" as="geometry">
            <mxPoint y="120" as="offset" />
          </mxGeometry>
        </mxCell>
        <mxCell id="llxftVUKtbDUr1pnSRmL-32" value="Seg Alimentar" style="rounded=0;fillColor=none;strokeColor=none;shadow=0;html=1;align=left;fontSize=12;spacingLeft=10;fontColor=#253858;resizeWidth=1;sketch=1;hachureGap=4;pointerEvents=0;fontFamily=Architects Daughter;fontSource=https%3A%2F%2Ffonts.googleapis.com%2Fcss%3Ffamily%3DArchitects%2BDaughter;" vertex="1" parent="llxftVUKtbDUr1pnSRmL-28">
          <mxGeometry width="110" height="33" relative="1" as="geometry">
            <mxPoint y="150" as="offset" />
          </mxGeometry>
        </mxCell>
        <mxCell id="llxftVUKtbDUr1pnSRmL-33" value="Sa煤de Do Funcion" style="rounded=0;fillColor=#F4F5F7;strokeColor=none;shadow=0;html=1;align=left;fontSize=12;spacingLeft=10;fontColor=#253858;resizeWidth=1;sketch=1;hachureGap=4;pointerEvents=0;fontFamily=Architects Daughter;fontSource=https%3A%2F%2Ffonts.googleapis.com%2Fcss%3Ffamily%3DArchitects%2BDaughter;" vertex="1" parent="llxftVUKtbDUr1pnSRmL-28">
          <mxGeometry x="-4" y="70" width="110" height="30" as="geometry" />
        </mxCell>
        <mxCell id="llxftVUKtbDUr1pnSRmL-34" value="Todos" style="rounded=0;fillColor=#F4F5F7;strokeColor=none;shadow=0;html=1;align=left;fontSize=12;spacingLeft=10;fontColor=#253858;resizeWidth=1;sketch=1;hachureGap=4;pointerEvents=0;fontFamily=Architects Daughter;fontSource=https%3A%2F%2Ffonts.googleapis.com%2Fcss%3Ffamily%3DArchitects%2BDaughter;" vertex="1" parent="llxftVUKtbDUr1pnSRmL-28">
          <mxGeometry y="10" width="110" height="33" as="geometry" />
        </mxCell>
        <mxCell id="llxftVUKtbDUr1pnSRmL-35" value="CheckList" style="rounded=1;fillColor=#253858;strokeColor=none;html=1;fontColor=#ffffff;align=left;fontSize=12;spacingLeft=10;sketch=0;hachureGap=4;pointerEvents=0;fontFamily=Architects Daughter;fontSource=https%3A%2F%2Ffonts.googleapis.com%2Fcss%3Ffamily%3DArchitects%2BDaughter;" vertex="1" parent="llxftVUKtbDUr1pnSRmL-26">
          <mxGeometry x="490" y="50" width="100" height="33" as="geometry" />
        </mxCell>
        <mxCell id="llxftVUKtbDUr1pnSRmL-36" value="" style="shape=triangle;direction=south;fillColor=#ffffff;strokeColor=none;html=1;sketch=1;hachureGap=4;pointerEvents=0;fontFamily=Architects Daughter;fontSource=https%3A%2F%2Ffonts.googleapis.com%2Fcss%3Ffamily%3DArchitects%2BDaughter;fontSize=20;" vertex="1" parent="llxftVUKtbDUr1pnSRmL-35">
          <mxGeometry x="1" y="0.5" width="12" height="6" relative="1" as="geometry">
            <mxPoint x="-20" y="-3" as="offset" />
          </mxGeometry>
        </mxCell>
        <mxCell id="llxftVUKtbDUr1pnSRmL-37" value="" style="rounded=1;arcSize=9;fillColor=#ffffff;strokeColor=#4C9AFF;html=1;strokeWidth=2;spacingLeft=30;fontColor=#000000;align=left" vertex="1" parent="llxftVUKtbDUr1pnSRmL-26">
          <mxGeometry x="140" y="50" width="340" height="33" as="geometry" />
        </mxCell>
        <mxCell id="llxftVUKtbDUr1pnSRmL-38" value="" style="shape=mxgraph.ios7.icons.looking_glass;fillColor=none;strokeColor=#243759;html=1;strokeWidth=2" vertex="1" parent="llxftVUKtbDUr1pnSRmL-37">
          <mxGeometry x="1" y="0.5" width="15" height="15" relative="1" as="geometry">
            <mxPoint x="-30" y="-7.5" as="offset" />
          </mxGeometry>
        </mxCell>
        <mxCell id="2HG7pKIlgfiTT0__csEu-1" value="Check List" style="swimlane;whiteSpace=wrap;html=1;startSize=23;" vertex="1" parent="1">
          <mxGeometry x="90" y="1400" width="737" height="500" as="geometry" />
        </mxCell>
        <mxCell id="2HG7pKIlgfiTT0__csEu-4" value="Projeto do GitHub" style="text;html=1;strokeColor=none;fillColor=none;align=center;verticalAlign=middle;whiteSpace=wrap;rounded=0;" vertex="1" parent="2HG7pKIlgfiTT0__csEu-1">
          <mxGeometry x="255" y="460" width="150" height="30" as="geometry" />
        </mxCell>
      </root>
    </mxGraphModel>
  </diagram>
  <diagram id="ysssjvyGe_l7s7X1TWlq" name="BD CheckList">
    <mxGraphModel dx="832" dy="452" grid="1" gridSize="10" guides="1" tooltips="1" connect="1" arrows="1" fold="1" page="1" pageScale="1" pageWidth="827" pageHeight="1169" math="0" shadow="0">
      <root>
        <mxCell id="0" />
        <mxCell id="1" parent="0" />
        <mxCell id="895QK1fmOy8rYr-o2RLP-1" value="PerguntasPadr茫o" style="shape=table;startSize=30;container=1;collapsible=1;childLayout=tableLayout;fixedRows=1;rowLines=0;fontStyle=1;align=center;resizeLast=1;" parent="1" vertex="1">
          <mxGeometry x="245" y="290" width="150" height="150" as="geometry" />
        </mxCell>
        <mxCell id="895QK1fmOy8rYr-o2RLP-2" value="" style="shape=tableRow;horizontal=0;startSize=0;swimlaneHead=0;swimlaneBody=0;fillColor=none;collapsible=0;dropTarget=0;points=[[0,0.5],[1,0.5]];portConstraint=eastwest;top=0;left=0;right=0;bottom=1;" parent="895QK1fmOy8rYr-o2RLP-1" vertex="1">
          <mxGeometry y="30" width="150" height="30" as="geometry" />
        </mxCell>
        <mxCell id="895QK1fmOy8rYr-o2RLP-3" value="PK" style="shape=partialRectangle;connectable=0;fillColor=none;top=0;left=0;bottom=0;right=0;fontStyle=1;overflow=hidden;" parent="895QK1fmOy8rYr-o2RLP-2" vertex="1">
          <mxGeometry width="30" height="30" as="geometry">
            <mxRectangle width="30" height="30" as="alternateBounds" />
          </mxGeometry>
        </mxCell>
        <mxCell id="895QK1fmOy8rYr-o2RLP-4" value="ID" style="shape=partialRectangle;connectable=0;fillColor=none;top=0;left=0;bottom=0;right=0;align=left;spacingLeft=6;fontStyle=5;overflow=hidden;" parent="895QK1fmOy8rYr-o2RLP-2" vertex="1">
          <mxGeometry x="30" width="120" height="30" as="geometry">
            <mxRectangle width="120" height="30" as="alternateBounds" />
          </mxGeometry>
        </mxCell>
        <mxCell id="895QK1fmOy8rYr-o2RLP-5" value="" style="shape=tableRow;horizontal=0;startSize=0;swimlaneHead=0;swimlaneBody=0;fillColor=none;collapsible=0;dropTarget=0;points=[[0,0.5],[1,0.5]];portConstraint=eastwest;top=0;left=0;right=0;bottom=0;" parent="895QK1fmOy8rYr-o2RLP-1" vertex="1">
          <mxGeometry y="60" width="150" height="30" as="geometry" />
        </mxCell>
        <mxCell id="895QK1fmOy8rYr-o2RLP-6" value="" style="shape=partialRectangle;connectable=0;fillColor=none;top=0;left=0;bottom=0;right=0;editable=1;overflow=hidden;" parent="895QK1fmOy8rYr-o2RLP-5" vertex="1">
          <mxGeometry width="30" height="30" as="geometry">
            <mxRectangle width="30" height="30" as="alternateBounds" />
          </mxGeometry>
        </mxCell>
        <mxCell id="895QK1fmOy8rYr-o2RLP-7" value="Pergunta 1" style="shape=partialRectangle;connectable=0;fillColor=none;top=0;left=0;bottom=0;right=0;align=left;spacingLeft=6;overflow=hidden;" parent="895QK1fmOy8rYr-o2RLP-5" vertex="1">
          <mxGeometry x="30" width="120" height="30" as="geometry">
            <mxRectangle width="120" height="30" as="alternateBounds" />
          </mxGeometry>
        </mxCell>
        <mxCell id="895QK1fmOy8rYr-o2RLP-8" value="" style="shape=tableRow;horizontal=0;startSize=0;swimlaneHead=0;swimlaneBody=0;fillColor=none;collapsible=0;dropTarget=0;points=[[0,0.5],[1,0.5]];portConstraint=eastwest;top=0;left=0;right=0;bottom=0;" parent="895QK1fmOy8rYr-o2RLP-1" vertex="1">
          <mxGeometry y="90" width="150" height="30" as="geometry" />
        </mxCell>
        <mxCell id="895QK1fmOy8rYr-o2RLP-9" value="" style="shape=partialRectangle;connectable=0;fillColor=none;top=0;left=0;bottom=0;right=0;editable=1;overflow=hidden;" parent="895QK1fmOy8rYr-o2RLP-8" vertex="1">
          <mxGeometry width="30" height="30" as="geometry">
            <mxRectangle width="30" height="30" as="alternateBounds" />
          </mxGeometry>
        </mxCell>
        <mxCell id="895QK1fmOy8rYr-o2RLP-10" value="Op莽茫o (1,2,3)" style="shape=partialRectangle;connectable=0;fillColor=none;top=0;left=0;bottom=0;right=0;align=left;spacingLeft=6;overflow=hidden;" parent="895QK1fmOy8rYr-o2RLP-8" vertex="1">
          <mxGeometry x="30" width="120" height="30" as="geometry">
            <mxRectangle width="120" height="30" as="alternateBounds" />
          </mxGeometry>
        </mxCell>
        <mxCell id="895QK1fmOy8rYr-o2RLP-11" value="" style="shape=tableRow;horizontal=0;startSize=0;swimlaneHead=0;swimlaneBody=0;fillColor=none;collapsible=0;dropTarget=0;points=[[0,0.5],[1,0.5]];portConstraint=eastwest;top=0;left=0;right=0;bottom=0;" parent="895QK1fmOy8rYr-o2RLP-1" vertex="1">
          <mxGeometry y="120" width="150" height="30" as="geometry" />
        </mxCell>
        <mxCell id="895QK1fmOy8rYr-o2RLP-12" value="" style="shape=partialRectangle;connectable=0;fillColor=none;top=0;left=0;bottom=0;right=0;editable=1;overflow=hidden;" parent="895QK1fmOy8rYr-o2RLP-11" vertex="1">
          <mxGeometry width="30" height="30" as="geometry">
            <mxRectangle width="30" height="30" as="alternateBounds" />
          </mxGeometry>
        </mxCell>
        <mxCell id="895QK1fmOy8rYr-o2RLP-13" value="Observa莽茫o" style="shape=partialRectangle;connectable=0;fillColor=none;top=0;left=0;bottom=0;right=0;align=left;spacingLeft=6;overflow=hidden;" parent="895QK1fmOy8rYr-o2RLP-11" vertex="1">
          <mxGeometry x="30" width="120" height="30" as="geometry">
            <mxRectangle width="120" height="30" as="alternateBounds" />
          </mxGeometry>
        </mxCell>
        <mxCell id="-gHLVp9EsM4biF3PO2Wi-1" value="Usu谩rio" style="shape=table;startSize=30;container=1;collapsible=1;childLayout=tableLayout;fixedRows=1;rowLines=0;fontStyle=1;align=center;resizeLast=1;" parent="1" vertex="1">
          <mxGeometry x="50" y="110" width="120" height="150" as="geometry" />
        </mxCell>
        <mxCell id="-gHLVp9EsM4biF3PO2Wi-2" value="" style="shape=tableRow;horizontal=0;startSize=0;swimlaneHead=0;swimlaneBody=0;fillColor=none;collapsible=0;dropTarget=0;points=[[0,0.5],[1,0.5]];portConstraint=eastwest;top=0;left=0;right=0;bottom=1;" parent="-gHLVp9EsM4biF3PO2Wi-1" vertex="1">
          <mxGeometry y="30" width="120" height="30" as="geometry" />
        </mxCell>
        <mxCell id="-gHLVp9EsM4biF3PO2Wi-3" value="PK" style="shape=partialRectangle;connectable=0;fillColor=none;top=0;left=0;bottom=0;right=0;fontStyle=1;overflow=hidden;" parent="-gHLVp9EsM4biF3PO2Wi-2" vertex="1">
          <mxGeometry width="30" height="30" as="geometry">
            <mxRectangle width="30" height="30" as="alternateBounds" />
          </mxGeometry>
        </mxCell>
        <mxCell id="-gHLVp9EsM4biF3PO2Wi-4" value="ID" style="shape=partialRectangle;connectable=0;fillColor=none;top=0;left=0;bottom=0;right=0;align=left;spacingLeft=6;fontStyle=5;overflow=hidden;" parent="-gHLVp9EsM4biF3PO2Wi-2" vertex="1">
          <mxGeometry x="30" width="90" height="30" as="geometry">
            <mxRectangle width="90" height="30" as="alternateBounds" />
          </mxGeometry>
        </mxCell>
        <mxCell id="-gHLVp9EsM4biF3PO2Wi-5" value="" style="shape=tableRow;horizontal=0;startSize=0;swimlaneHead=0;swimlaneBody=0;fillColor=none;collapsible=0;dropTarget=0;points=[[0,0.5],[1,0.5]];portConstraint=eastwest;top=0;left=0;right=0;bottom=0;" parent="-gHLVp9EsM4biF3PO2Wi-1" vertex="1">
          <mxGeometry y="60" width="120" height="30" as="geometry" />
        </mxCell>
        <mxCell id="-gHLVp9EsM4biF3PO2Wi-6" value="" style="shape=partialRectangle;connectable=0;fillColor=none;top=0;left=0;bottom=0;right=0;editable=1;overflow=hidden;" parent="-gHLVp9EsM4biF3PO2Wi-5" vertex="1">
          <mxGeometry width="30" height="30" as="geometry">
            <mxRectangle width="30" height="30" as="alternateBounds" />
          </mxGeometry>
        </mxCell>
        <mxCell id="-gHLVp9EsM4biF3PO2Wi-7" value="Nome" style="shape=partialRectangle;connectable=0;fillColor=none;top=0;left=0;bottom=0;right=0;align=left;spacingLeft=6;overflow=hidden;" parent="-gHLVp9EsM4biF3PO2Wi-5" vertex="1">
          <mxGeometry x="30" width="90" height="30" as="geometry">
            <mxRectangle width="90" height="30" as="alternateBounds" />
          </mxGeometry>
        </mxCell>
        <mxCell id="-gHLVp9EsM4biF3PO2Wi-8" value="" style="shape=tableRow;horizontal=0;startSize=0;swimlaneHead=0;swimlaneBody=0;fillColor=none;collapsible=0;dropTarget=0;points=[[0,0.5],[1,0.5]];portConstraint=eastwest;top=0;left=0;right=0;bottom=0;" parent="-gHLVp9EsM4biF3PO2Wi-1" vertex="1">
          <mxGeometry y="90" width="120" height="30" as="geometry" />
        </mxCell>
        <mxCell id="-gHLVp9EsM4biF3PO2Wi-9" value="" style="shape=partialRectangle;connectable=0;fillColor=none;top=0;left=0;bottom=0;right=0;editable=1;overflow=hidden;" parent="-gHLVp9EsM4biF3PO2Wi-8" vertex="1">
          <mxGeometry width="30" height="30" as="geometry">
            <mxRectangle width="30" height="30" as="alternateBounds" />
          </mxGeometry>
        </mxCell>
        <mxCell id="-gHLVp9EsM4biF3PO2Wi-10" value="Email" style="shape=partialRectangle;connectable=0;fillColor=none;top=0;left=0;bottom=0;right=0;align=left;spacingLeft=6;overflow=hidden;" parent="-gHLVp9EsM4biF3PO2Wi-8" vertex="1">
          <mxGeometry x="30" width="90" height="30" as="geometry">
            <mxRectangle width="90" height="30" as="alternateBounds" />
          </mxGeometry>
        </mxCell>
        <mxCell id="-gHLVp9EsM4biF3PO2Wi-11" value="" style="shape=tableRow;horizontal=0;startSize=0;swimlaneHead=0;swimlaneBody=0;fillColor=none;collapsible=0;dropTarget=0;points=[[0,0.5],[1,0.5]];portConstraint=eastwest;top=0;left=0;right=0;bottom=0;" parent="-gHLVp9EsM4biF3PO2Wi-1" vertex="1">
          <mxGeometry y="120" width="120" height="30" as="geometry" />
        </mxCell>
        <mxCell id="-gHLVp9EsM4biF3PO2Wi-12" value="" style="shape=partialRectangle;connectable=0;fillColor=none;top=0;left=0;bottom=0;right=0;editable=1;overflow=hidden;" parent="-gHLVp9EsM4biF3PO2Wi-11" vertex="1">
          <mxGeometry width="30" height="30" as="geometry">
            <mxRectangle width="30" height="30" as="alternateBounds" />
          </mxGeometry>
        </mxCell>
        <mxCell id="-gHLVp9EsM4biF3PO2Wi-13" value="" style="shape=partialRectangle;connectable=0;fillColor=none;top=0;left=0;bottom=0;right=0;align=left;spacingLeft=6;overflow=hidden;" parent="-gHLVp9EsM4biF3PO2Wi-11" vertex="1">
          <mxGeometry x="30" width="90" height="30" as="geometry">
            <mxRectangle width="90" height="30" as="alternateBounds" />
          </mxGeometry>
        </mxCell>
        <mxCell id="-gHLVp9EsM4biF3PO2Wi-14" value="NovasPerguntas" style="shape=table;startSize=30;container=1;collapsible=1;childLayout=tableLayout;fixedRows=1;rowLines=0;fontStyle=1;align=center;resizeLast=1;" parent="1" vertex="1">
          <mxGeometry x="490" y="110" width="130" height="150" as="geometry" />
        </mxCell>
        <mxCell id="-gHLVp9EsM4biF3PO2Wi-15" value="" style="shape=tableRow;horizontal=0;startSize=0;swimlaneHead=0;swimlaneBody=0;fillColor=none;collapsible=0;dropTarget=0;points=[[0,0.5],[1,0.5]];portConstraint=eastwest;top=0;left=0;right=0;bottom=1;" parent="-gHLVp9EsM4biF3PO2Wi-14" vertex="1">
          <mxGeometry y="30" width="130" height="30" as="geometry" />
        </mxCell>
        <mxCell id="-gHLVp9EsM4biF3PO2Wi-16" value="PK" style="shape=partialRectangle;connectable=0;fillColor=none;top=0;left=0;bottom=0;right=0;fontStyle=1;overflow=hidden;" parent="-gHLVp9EsM4biF3PO2Wi-15" vertex="1">
          <mxGeometry width="30" height="30" as="geometry">
            <mxRectangle width="30" height="30" as="alternateBounds" />
          </mxGeometry>
        </mxCell>
        <mxCell id="-gHLVp9EsM4biF3PO2Wi-17" value="ID" style="shape=partialRectangle;connectable=0;fillColor=none;top=0;left=0;bottom=0;right=0;align=left;spacingLeft=6;fontStyle=5;overflow=hidden;" parent="-gHLVp9EsM4biF3PO2Wi-15" vertex="1">
          <mxGeometry x="30" width="100" height="30" as="geometry">
            <mxRectangle width="100" height="30" as="alternateBounds" />
          </mxGeometry>
        </mxCell>
        <mxCell id="-gHLVp9EsM4biF3PO2Wi-18" value="" style="shape=tableRow;horizontal=0;startSize=0;swimlaneHead=0;swimlaneBody=0;fillColor=none;collapsible=0;dropTarget=0;points=[[0,0.5],[1,0.5]];portConstraint=eastwest;top=0;left=0;right=0;bottom=0;" parent="-gHLVp9EsM4biF3PO2Wi-14" vertex="1">
          <mxGeometry y="60" width="130" height="30" as="geometry" />
        </mxCell>
        <mxCell id="-gHLVp9EsM4biF3PO2Wi-19" value="" style="shape=partialRectangle;connectable=0;fillColor=none;top=0;left=0;bottom=0;right=0;editable=1;overflow=hidden;" parent="-gHLVp9EsM4biF3PO2Wi-18" vertex="1">
          <mxGeometry width="30" height="30" as="geometry">
            <mxRectangle width="30" height="30" as="alternateBounds" />
          </mxGeometry>
        </mxCell>
        <mxCell id="-gHLVp9EsM4biF3PO2Wi-20" value="NovaPergunta" style="shape=partialRectangle;connectable=0;fillColor=none;top=0;left=0;bottom=0;right=0;align=left;spacingLeft=6;overflow=hidden;" parent="-gHLVp9EsM4biF3PO2Wi-18" vertex="1">
          <mxGeometry x="30" width="100" height="30" as="geometry">
            <mxRectangle width="100" height="30" as="alternateBounds" />
          </mxGeometry>
        </mxCell>
        <mxCell id="-gHLVp9EsM4biF3PO2Wi-21" value="" style="shape=tableRow;horizontal=0;startSize=0;swimlaneHead=0;swimlaneBody=0;fillColor=none;collapsible=0;dropTarget=0;points=[[0,0.5],[1,0.5]];portConstraint=eastwest;top=0;left=0;right=0;bottom=0;" parent="-gHLVp9EsM4biF3PO2Wi-14" vertex="1">
          <mxGeometry y="90" width="130" height="30" as="geometry" />
        </mxCell>
        <mxCell id="-gHLVp9EsM4biF3PO2Wi-22" value="" style="shape=partialRectangle;connectable=0;fillColor=none;top=0;left=0;bottom=0;right=0;editable=1;overflow=hidden;" parent="-gHLVp9EsM4biF3PO2Wi-21" vertex="1">
          <mxGeometry width="30" height="30" as="geometry">
            <mxRectangle width="30" height="30" as="alternateBounds" />
          </mxGeometry>
        </mxCell>
        <mxCell id="-gHLVp9EsM4biF3PO2Wi-23" value="Op莽茫o (1,2,3)" style="shape=partialRectangle;connectable=0;fillColor=none;top=0;left=0;bottom=0;right=0;align=left;spacingLeft=6;overflow=hidden;" parent="-gHLVp9EsM4biF3PO2Wi-21" vertex="1">
          <mxGeometry x="30" width="100" height="30" as="geometry">
            <mxRectangle width="100" height="30" as="alternateBounds" />
          </mxGeometry>
        </mxCell>
        <mxCell id="-gHLVp9EsM4biF3PO2Wi-24" value="" style="shape=tableRow;horizontal=0;startSize=0;swimlaneHead=0;swimlaneBody=0;fillColor=none;collapsible=0;dropTarget=0;points=[[0,0.5],[1,0.5]];portConstraint=eastwest;top=0;left=0;right=0;bottom=0;" parent="-gHLVp9EsM4biF3PO2Wi-14" vertex="1">
          <mxGeometry y="120" width="130" height="30" as="geometry" />
        </mxCell>
        <mxCell id="-gHLVp9EsM4biF3PO2Wi-25" value="" style="shape=partialRectangle;connectable=0;fillColor=none;top=0;left=0;bottom=0;right=0;editable=1;overflow=hidden;" parent="-gHLVp9EsM4biF3PO2Wi-24" vertex="1">
          <mxGeometry width="30" height="30" as="geometry">
            <mxRectangle width="30" height="30" as="alternateBounds" />
          </mxGeometry>
        </mxCell>
        <mxCell id="-gHLVp9EsM4biF3PO2Wi-26" value="Observa莽茫o" style="shape=partialRectangle;connectable=0;fillColor=none;top=0;left=0;bottom=0;right=0;align=left;spacingLeft=6;overflow=hidden;" parent="-gHLVp9EsM4biF3PO2Wi-24" vertex="1">
          <mxGeometry x="30" width="100" height="30" as="geometry">
            <mxRectangle width="100" height="30" as="alternateBounds" />
          </mxGeometry>
        </mxCell>
        <mxCell id="-gHLVp9EsM4biF3PO2Wi-28" style="edgeStyle=orthogonalEdgeStyle;rounded=0;orthogonalLoop=1;jettySize=auto;html=1;" parent="1" source="-gHLVp9EsM4biF3PO2Wi-27" edge="1">
          <mxGeometry relative="1" as="geometry">
            <mxPoint x="480" y="180" as="targetPoint" />
          </mxGeometry>
        </mxCell>
        <mxCell id="-gHLVp9EsM4biF3PO2Wi-29" style="edgeStyle=orthogonalEdgeStyle;rounded=0;orthogonalLoop=1;jettySize=auto;html=1;" parent="1" source="-gHLVp9EsM4biF3PO2Wi-27" edge="1">
          <mxGeometry relative="1" as="geometry">
            <mxPoint x="180" y="180" as="targetPoint" />
          </mxGeometry>
        </mxCell>
        <mxCell id="-gHLVp9EsM4biF3PO2Wi-27" value="Cadastra/Consulta" style="shape=rhombus;double=1;perimeter=rhombusPerimeter;whiteSpace=wrap;html=1;align=center;" parent="1" vertex="1">
          <mxGeometry x="260" y="140" width="140" height="70" as="geometry" />
        </mxCell>
        <mxCell id="-gHLVp9EsM4biF3PO2Wi-35" style="edgeStyle=orthogonalEdgeStyle;rounded=0;orthogonalLoop=1;jettySize=auto;html=1;" parent="1" source="-gHLVp9EsM4biF3PO2Wi-34" edge="1">
          <mxGeometry relative="1" as="geometry">
            <mxPoint x="110" y="280" as="targetPoint" />
          </mxGeometry>
        </mxCell>
        <mxCell id="-gHLVp9EsM4biF3PO2Wi-36" style="edgeStyle=orthogonalEdgeStyle;rounded=0;orthogonalLoop=1;jettySize=auto;html=1;" parent="1" source="-gHLVp9EsM4biF3PO2Wi-34" edge="1">
          <mxGeometry relative="1" as="geometry">
            <mxPoint x="230" y="365" as="targetPoint" />
          </mxGeometry>
        </mxCell>
        <mxCell id="-gHLVp9EsM4biF3PO2Wi-34" value="Consulta" style="shape=rhombus;double=1;perimeter=rhombusPerimeter;whiteSpace=wrap;html=1;align=center;" parent="1" vertex="1">
          <mxGeometry x="50" y="335" width="120" height="60" as="geometry" />
        </mxCell>
        <mxCell id="-gHLVp9EsM4biF3PO2Wi-37" value="&lt;font style=&quot;font-size: 22px;&quot;&gt;&lt;b&gt;Check List&lt;/b&gt;&lt;/font&gt;" style="text;html=1;strokeColor=none;fillColor=none;align=center;verticalAlign=middle;whiteSpace=wrap;rounded=0;" parent="1" vertex="1">
          <mxGeometry x="255" y="30" width="130" height="80" as="geometry" />
        </mxCell>
      </root>
    </mxGraphModel>
  </diagram>
  <diagram id="oQPT8LgnMPBMpqXlbTt_" name="P谩gina-3">
    <mxGraphModel dx="986" dy="470" grid="1" gridSize="10" guides="1" tooltips="1" connect="1" arrows="1" fold="1" page="1" pageScale="1" pageWidth="827" pageHeight="1169" math="0" shadow="0">
      <root>
        <mxCell id="0" />
        <mxCell id="1" parent="0" />
      </root>
    </mxGraphModel>
  </diagram>
</mxfile>
